<svg width="48" height="48" viewBox="0 0 48 48" fill="none" xmlns="http://www.w3.org/2000/svg">
<rect width="48" height="48" rx="24" fill="url(#paint0_linear_1_439)"/>
<path d="M24 14.7296C27.0185 14.7296 27.3766 14.7422 28.5682 14.7962C29.6697 14.8466 30.2691 15.032 30.6669 15.1868C31.1942 15.392 31.5704 15.6368 31.9664 16.0327C32.3624 16.4287 32.6072 16.8049 32.8124 17.3323C32.9671 17.7301 33.1525 18.3294 33.2029 19.431C33.2569 20.6225 33.2695 20.9807 33.2695 23.9992C33.2695 27.0176 33.2587 27.3758 33.2029 28.5674C33.1525 29.6707 32.969 30.2682 32.8124 30.666C32.6072 31.1934 32.3624 31.5696 31.9664 31.9656C31.5704 32.3616 31.1942 32.6064 30.6669 32.8116C30.2691 32.9663 29.6697 33.1517 28.5682 33.2003C27.3766 33.2543 27.0185 33.2669 24 33.2669C20.9816 33.2669 20.6234 33.2543 19.43 33.2003C18.3285 33.1499 17.7291 32.9663 17.3313 32.8116C16.804 32.6064 16.4278 32.3616 16.0318 31.9656C15.6358 31.5696 15.391 31.1934 15.1858 30.666C15.031 30.2682 14.8475 29.6689 14.7971 28.5674C14.7431 27.3758 14.7305 27.0176 14.7305 23.9992C14.7305 20.9807 14.7413 20.6225 14.7971 19.431C14.8475 18.3294 15.0328 17.7301 15.1858 17.3323C15.391 16.8049 15.6358 16.4269 16.0318 16.0327C16.4278 15.6368 16.804 15.392 17.3313 15.1868C17.7291 15.032 18.3285 14.8484 19.43 14.7962C20.6234 14.7422 20.9816 14.7296 24 14.7296ZM24 12.6921C20.9294 12.6921 20.5442 12.7047 19.3382 12.7605C18.1341 12.8145 17.3133 13.0071 16.5934 13.2861C15.85 13.5741 15.22 13.9611 14.5901 14.591C13.9619 15.2192 13.5749 15.851 13.2851 16.5925C13.0061 17.3125 12.8154 18.1332 12.7596 19.3374C12.7038 20.5433 12.6912 20.9286 12.6912 23.9992C12.6912 27.0698 12.7038 27.455 12.7596 28.661C12.8154 29.8651 13.0061 30.6858 13.2851 31.4058C13.5749 32.1492 13.9601 32.781 14.5901 33.4091C15.2182 34.0373 15.85 34.4242 16.5934 34.714C17.3115 34.993 18.1341 35.1838 19.3382 35.2396C20.5442 35.2954 20.9294 35.308 24 35.308C27.0707 35.308 27.4558 35.2954 28.6618 35.2396C29.8659 35.1838 30.6867 34.993 31.4066 34.714C32.15 34.4242 32.78 34.0373 33.4099 33.4091C34.0381 32.781 34.4251 32.1492 34.7149 31.4058C34.9939 30.6858 35.1846 29.8651 35.2404 28.661C35.2944 27.455 35.3088 27.0698 35.3088 23.9992C35.3088 20.9286 35.2962 20.5433 35.2404 19.3374C35.1846 18.1332 34.9939 17.3125 34.7149 16.5925C34.4269 15.8492 34.0399 15.2192 33.4099 14.591C32.7818 13.9611 32.1518 13.5759 31.4066 13.2861C30.6885 13.0071 29.8659 12.8145 28.6618 12.7605C27.4558 12.7065 27.0707 12.6921 24 12.6921Z" fill="white"/>
<path d="M24 18.1946C20.7926 18.1946 18.1935 20.7937 18.1935 23.9993C18.1935 27.2049 20.7926 29.804 24 29.804C27.2056 29.804 29.8047 27.2049 29.8047 23.9993C29.8047 20.7937 27.2074 18.1946 24 18.1946ZM24 27.7683C21.9193 27.7683 20.231 26.0818 20.231 23.9993C20.231 21.9186 21.9193 20.2302 24 20.2302C26.0807 20.2302 27.769 21.9168 27.769 23.9993C27.769 26.0818 26.0825 27.7683 24 27.7683Z" fill="white"/>
<path d="M31.3922 17.9641C31.3922 18.7128 30.7857 19.3212 30.0351 19.3212C29.2863 19.3212 28.6797 18.7128 28.6797 17.9641C28.6797 17.2153 29.2863 16.6069 30.0351 16.6069C30.7839 16.6069 31.3922 17.2153 31.3922 17.9641Z" fill="white"/>
<defs>
<linearGradient id="paint0_linear_1_439" x1="0" y1="24" x2="48" y2="24" gradientUnits="userSpaceOnUse">
<stop stop-color="#F59C1E"/>
<stop offset="1" stop-color="#D3321D"/>
</linearGradient>
</defs>
</svg>
