<svg width="48" height="48" viewBox="0 0 48 48" fill="none" xmlns="http://www.w3.org/2000/svg">
<rect width="48" height="48" rx="24" fill="url(#paint0_linear_1_448)"/>
<g clip-path="url(#clip0_1_448)">
<path d="M11.4425 14.7879C11.4425 13.9798 11.7253 13.3131 12.291 12.7879C12.8566 12.2626 13.592 12 14.497 12C15.3859 12 16.1051 12.2586 16.6546 12.7758C17.2203 13.3091 17.5031 14.004 17.5031 14.8606C17.5031 15.6364 17.2284 16.2828 16.6789 16.8C16.1132 17.3333 15.3698 17.6 14.4486 17.6H14.4243C13.5354 17.6 12.8162 17.3333 12.2667 16.8C11.7172 16.2667 11.4425 15.5959 11.4425 14.7879ZM11.7577 36V19.806H17.1395V36H11.7577ZM20.1213 36H25.5031V26.9576C25.5031 26.3919 25.5677 25.9555 25.697 25.6485C25.9233 25.099 26.2667 24.6343 26.7273 24.2545C27.1879 23.8747 27.7657 23.6848 28.4607 23.6848C30.2708 23.6848 31.1758 24.905 31.1758 27.3454V36H36.5576V26.7151C36.5576 24.3232 35.992 22.5091 34.8606 21.2727C33.7293 20.0364 32.2344 19.4182 30.3758 19.4182C28.291 19.4182 26.6667 20.3151 25.5031 22.1091V22.1576H25.4788L25.5031 22.1091V19.806H20.1213C20.1536 20.3232 20.1698 21.9313 20.1698 24.6303C20.1698 27.3293 20.1536 31.1191 20.1213 36Z" fill="white"/>
</g>
<defs>
<linearGradient id="paint0_linear_1_448" x1="0" y1="24" x2="48" y2="24" gradientUnits="userSpaceOnUse">
<stop stop-color="#F59C1E"/>
<stop offset="1" stop-color="#D3321D"/>
</linearGradient>
<clipPath id="clip0_1_448">
<rect width="25.1151" height="24" fill="white" transform="translate(11.4424 12)"/>
</clipPath>
</defs>
</svg>
